<svg width="11" height="12" viewBox="0 0 11 12" fill="none" xmlns="http://www.w3.org/2000/svg">
<path d="M7.4515 1.64215C8.06112 0.673042 9.24224 0.910756 9.93111 1.62858C10.62 2.34641 10.7221 3.41936 10.0043 4.10823M10.0043 4.10823C10.4447 5.28036 10.4447 6.57249 10.0043 7.74462C8.87648 10.7135 5.66378 10.4788 5.66378 10.4788C5.66378 10.4788 2.45109 10.7135 1.32329 7.74462C0.884009 6.57229 0.884003 5.28055 1.32328 4.10822M10.0043 4.10823C8.87648 1.13938 5.66378 1.37561 5.66378 1.37561C5.66378 1.37561 2.45108 1.13937 1.32328 4.10822M3.86995 1.64423C3.10793 0.825418 2.03499 0.855918 1.34765 1.57375C0.660299 2.29157 0.605454 3.41935 1.32328 4.10822M8.33876 9.7972L9.259 11M2.98998 9.79792L2.06853 11M5.66377 3.84915V5.13849C5.66392 5.38395 5.72051 5.62611 5.82912 5.84623C5.93773 6.06635 6.09543 6.25857 6.29013 6.40804L7.58103 7.39714" stroke="#EC888D" stroke-width="0.762026" stroke-linecap="round" stroke-linejoin="round"/>
</svg>
