<svg width="26" height="27" viewBox="0 0 26 27" fill="none" xmlns="http://www.w3.org/2000/svg">
<path d="M1.01953 15.2467L10.1519 19.8303C11.7036 20.5975 13.4124 20.5975 14.9641 19.8303L24.0965 15.2467M1.01953 19.9248L10.1519 24.5082C11.7036 25.2754 13.4124 25.2754 14.9641 24.5082L24.0965 19.9248M22.1628 5.86977L14.6187 2.45325C13.2801 1.84892 11.8279 1.84892 10.4893 2.45325L2.9452 5.86977C2.48737 6.07872 2.09023 6.47153 1.80909 6.99351C1.52795 7.5155 1.37684 8.14065 1.37684 8.78172C1.37684 9.4228 1.52795 10.0478 1.80909 10.5698C2.09023 11.0918 2.48737 11.4847 2.9452 11.6937L10.394 15.0681C11.7837 15.6989 13.2925 15.6989 14.6822 15.0681L22.131 11.6937C22.59 11.4891 22.9893 11.1 23.2734 10.5807C23.5574 10.0614 23.7119 9.43784 23.7154 8.79674C23.7189 8.15564 23.5713 7.52897 23.2929 7.00429C23.0146 6.47962 22.6196 6.08306 22.1628 5.86977Z" stroke="#FFFDF9" stroke-width="2.05756" stroke-linecap="round" stroke-linejoin="round"/>
</svg>
