<svg width="12" height="10" viewBox="0 0 12 10" fill="none" xmlns="http://www.w3.org/2000/svg">
<path d="M8.42198 1.88234L7.18179 0.496022C7.04264 0.341573 6.86441 0.216583 6.66088 0.130623C6.45735 0.0446633 6.23379 0 6.00723 0C5.78068 0 5.55712 0.0446633 5.35359 0.130623C5.15005 0.216583 4.97195 0.341573 4.8328 0.496022L3.59261 1.88234C3.41839 2.07767 3.18358 2.22627 2.91546 2.31088L1.00806 2.90441C0.790289 2.96855 0.592721 3.07544 0.430832 3.21667C0.268943 3.35789 0.147109 3.5296 0.0750026 3.71834C0.00289573 3.90708 -0.0176043 4.10766 0.0151727 4.30439C0.0479497 4.50111 0.133142 4.68858 0.263938 4.8521L1.40494 6.30271C1.56181 6.50687 1.64787 6.74555 1.65298 6.99056L1.71741 8.74113C1.72219 8.93938 1.78007 9.13401 1.88637 9.30976C1.99267 9.48551 2.14458 9.63759 2.33025 9.7542C2.51591 9.87081 2.7302 9.94876 2.95652 9.98192C3.18284 10.0151 3.41497 10.0025 3.63475 9.9453L5.58443 9.45681C5.85734 9.38782 6.14732 9.38782 6.42023 9.45681L8.3699 9.9453C8.58969 10.0025 8.82182 10.0151 9.04814 9.98192C9.27445 9.94876 9.48875 9.87081 9.67441 9.7542C9.86008 9.63759 10.012 9.48551 10.1183 9.30976C10.2246 9.13401 10.2825 8.93938 10.2872 8.74113L10.3517 6.99056C10.3584 6.74578 10.4443 6.50748 10.5997 6.30271L11.7407 4.8521C11.8692 4.68866 11.9528 4.50203 11.985 4.30643C12.0172 4.11083 11.9973 3.91149 11.9267 3.72357C11.8561 3.53564 11.7368 3.36413 11.5777 3.22216C11.4186 3.08019 11.2241 2.97151 11.009 2.90441L9.09913 2.31088C8.83101 2.22627 8.5962 2.07767 8.42198 1.88234Z" fill="#EC888D"/>
</svg>
